<svg width="20" t="1576569114943" class="icon" viewBox="0 0 1024 1024" version="1.1" xmlns="http://www.w3.org/2000/svg" p-id="5988" width="200" height="200"><path d="M465.253 931.127H194.544V88.933h601.565v391.02c0 16.637 13.444 30.08 30.082 30.08s30.074-13.443 30.074-30.08V88.933c0-33.177-26.974-60.155-60.156-60.155H194.544c-33.178 0-60.155 26.978-60.155 60.155v842.194c0 33.176 26.978 60.154 60.155 60.154h270.71c16.636 0 30.074-13.437 30.074-30.072 0-16.642-13.438-30.082-30.075-30.082" p-id="5989"></path><path d="M705.874 269.405H284.781c-16.637 0-30.081 13.438-30.081 30.074 0 16.64 13.444 30.082 30.08 30.082h421.094c16.64 0 30.082-13.444 30.082-30.082 0-16.636-13.443-30.074-30.082-30.074m240.627 541.411H584.06c-0.378 0-0.755 0.092-1.125 0.092h-0.285c-14.29 1.316-25.661 12.688-27.071 27.07v0.284c0 0.375-0.097 0.752-0.097 1.13v3.57c0 0.279 0 0.562 0.097 0.845 0 0.285 0.094 0.564 0.094 0.843 0 0.19 0 0.377 0.096 0.566 0.092 0.374 0.092 0.658 0.188 1.038 0 0.092 0 0.28 0.092 0.371l0.283 1.13c0 0.097 0 0.188 0.091 0.188 0.098 0.377 0.19 0.85 0.38 1.22v0.187c0.095 0.475 0.284 0.853 0.376 1.32v0.097c0.188 0.467 0.278 0.933 0.466 1.312 1.604 3.947 4.046 7.426 6.958 10.34l84.687 84.69c11.75 11.75 30.736 11.75 42.582 0 11.75-11.749 11.75-30.738 0-42.584l-33.648-33.552h288.278c16.638 0 30.083-13.444 30.083-30.082-0.002-16.637-13.447-30.075-30.084-30.075M585.565 419.609H284.78c-16.637 0-30.081 13.437-30.081 30.075 0 16.636 13.444 30.08 30.08 30.08h300.785c16.636 0 30.08-13.444 30.08-30.08 0-16.638-13.444-30.075-30.08-30.075M465.253 570.092H284.781c-16.637 0-30.081 13.443-30.081 30.078 0 16.637 13.444 30.082 30.08 30.082h180.473c16.637 0 30.075-13.445 30.075-30.082 0-16.636-13.438-30.078-30.075-30.078m511.33 148.982v-0.564c0-0.28 0-0.564-0.096-0.847 0-0.282-0.092-0.561-0.092-0.842 0-0.19 0-0.378-0.096-0.564-0.095-0.376-0.095-0.755-0.191-1.04 0-0.09 0-0.277-0.092-0.37l-0.285-1.129c0-0.097 0-0.188-0.09-0.188-0.091-0.38-0.188-0.85-0.376-1.222v-0.189c-0.093-0.474-0.284-0.849-0.379-1.318v-0.097c-0.188-0.466-0.28-0.934-0.466-1.312-1.597-3.945-4.043-7.424-6.96-10.34l-84.685-84.691c-11.75-11.75-30.736-11.75-42.582 0-11.75 11.75-11.75 30.738 0 42.584l33.745 33.74H585.565c-16.638 0-30.082 13.445-30.082 30.083s13.444 30.076 30.082 30.076h362.441c0.38 0 0.753-0.095 1.13-0.095h0.283c14.288-1.316 25.66-12.688 27.07-27.069v-0.285c0-0.375 0.096-0.75 0.096-1.13v-3.19" p-id="5990"></path></svg>
